<svg id="td_logo"
	 xmlns="http://www.w3.org/2000/svg" x="0px" y="0px" width="3953.461px"
	 height="659.521px" viewBox="0 0 3953.461 659.521" enable-background="new 0 0 3953.461 659.521" xml:space="preserve">>
	<g>
		<path id="copyright" fill="#white" d="M3953.461,0l-10.51,85.777h-10.84l8.193-66.873l-31.773,45.65l-10.418-45.674l-23.15,66.896h-10.842
			L3893.807,0h10.84l9.373,41.092L3942.619,0H3953.461z M3873.732,0h-54.15l-2.402,10.234h21.648l-17.699,75.543h10.842
			l17.697-75.543h21.666L3873.732,0z"/>
		<path id="token" fill="#F16C62" d="M2065.134,418.621c-13.6,58.045-54.398,232.184-54.398,232.184h-82.27c0,0,41.292-174.025,54.399-232.184
			c22.658-100.59-10.419-125.717-50.554-125.717c-48.83,0-84.719,27.133-121.286,73.891l-66.541,284.01h-82.279l100.084-427.18
			h82.279l-8.65,36.918c0.006-0.006,49.31-45.633,122.12-45.633C2030.843,214.91,2104.706,249.717,2065.134,418.621z M758.969,0
			H18.227L0,77.68h493.88L359.602,650.805h82.279L576.16,77.68h164.61L758.969,0z M1361.993,223.625h-101.118l-153.359,149.143
			L1194.852,0h-82.279L960.095,650.805h82.279l48.321-206.242l88.857,206.242h82.279l-100.126-232.398L1361.993,223.625z
			 M1653.64,380.711c-38.992,68.045-136.557,108.342-271.269,80.318c-17.582,114.875,59.032,125.977,123.524,119.764
			c28.343-2.73,65.338-10.346,109.76-28.275l-17.273,73.863c-50.138,22.07-96.348,33.141-138.562,33.141
			c-105.212,0-168.302-67.029-159.985-184.775c9.599-137.973,113.541-259.84,249.836-259.84
			C1668.507,214.906,1696.114,306.59,1653.64,380.711z M1577.347,359.877c32.803-37.664,15.909-85.922-68.226-62.596
			c-42.062,11.658-79.865,48.342-103.215,92.719C1491.6,408.277,1550.282,390.955,1577.347,359.877z M861.38,602.91
			c-95.294,81.203-258.087,81.023-297.894-43.578c-24.264-75.951-3.458-215.086,101.056-295.67
			c93.194-71.855,251.905-71.514,289.305,55.004C973.913,386.541,960.432,518.504,861.38,602.91z M874.289,340.938
			c-18.399-52.752-107.486-72.105-176.955-2.061c-41.352,41.695-78.219,129.156-55.387,194.613
			c16.044,46,101.479,78.16,176.955,2.061C860.254,493.855,897.121,406.395,874.289,340.938z"/>
		<path id="desk" fill="white" d="M2647.921,327.904c-76.096,327.719-293.096,322.9-338.096,322.9c-10.139,0-214.879,0-214.879,0
			l100.086-427.18h82.277l-81.885,349.504c0,0,116.23,0,122.4,0c147.203,0,218.455-121.318,249.947-244.865
			c36.068-141.496,24.996-250.584-119.461-250.584c-24.068,0-651.904,0-651.904,0L1814.607,0c0,0,602.949,0,625.218,0
			C2484.825,0,2724.017,0.184,2647.921,327.904z M2910.021,214.906c-136.297,0-240.238,121.867-249.836,259.84
			c-8.318,117.746,54.771,184.775,159.984,184.775c42.213,0,88.424-11.07,138.562-33.141l17.273-73.863
			c-44.424,17.93-81.418,25.545-109.762,28.275c-64.492,6.213-141.105-4.889-123.523-119.764
			c134.711,28.023,232.277-12.273,271.268-80.318C3056.463,306.59,3028.855,214.906,2910.021,214.906z M2766.256,390
			c23.35-44.377,61.152-81.061,103.215-92.719c84.135-23.326,101.029,24.932,68.225,62.596
			C2910.631,390.955,2851.949,408.277,2766.256,390z M3215.535,648.348c54.148-18.17,89.555-57.977,101.457-104.029
			c13.693-52.992,8.93-96.869-47.314-128.314c-48.471-27.098-109.562-17.254-100.447-65.158
			c11.531-60.609,107.568-81.303,182.461-34.82l17.273-73.863c-27.145-18.357-61.998-27.252-104.422-27.252
			c-101.492,0-172.674,65.129-178.424,146.455c-4.973,70.354,43.486,89.816,93.07,102.1c43.982,10.896,67.674,27.945,56.428,64.887
			c-7.805,25.637-27.936,51.725-83.393,55.936c-44.066,3.348-93.258-7.205-120.256-36.416l-17.273,73.902
			C3065.07,664.254,3158.693,667.42,3215.535,648.348z M3751.192,223.625h-101.117l-153.359,149.143L3584.052,0h-82.279
			l-152.479,650.805h82.279l48.32-206.242l88.857,206.242h82.279l-100.125-232.398L3751.192,223.625z"/>
	</g>
</svg>
